<?xml version="1.0" encoding="utf-8"?>
<!-- Generator: Adobe Illustrator 21.0.0, SVG Export Plug-In . SVG Version: 6.00 Build 0)  -->
<svg version="1.1"
	 id="svg6110" inkscape:export-filename="C:\Users\angielski\Pictures\grafiki\mobilne_wektor\diki_logo.png" inkscape:export-xdpi="359" inkscape:export-ydpi="359" inkscape:version="0.91 r13725" sodipodi:docname="diki_logo.svg" xmlns:cc="http://creativecommons.org/ns#" xmlns:dc="http://purl.org/dc/elements/1.1/" xmlns:inkscape="http://www.inkscape.org/namespaces/inkscape" xmlns:rdf="http://www.w3.org/1999/02/22-rdf-syntax-ns#" xmlns:sodipodi="http://sodipodi.sourceforge.net/DTD/sodipodi-0.dtd" xmlns:svg="http://www.w3.org/2000/svg"
	 xmlns="http://www.w3.org/2000/svg" xmlns:xlink="http://www.w3.org/1999/xlink" x="0px" y="0px" viewBox="0 0 226.1 167.1"
	 style="enable-background:new 0 0 226.1 167.1;" xml:space="preserve">
<style type="text/css">
	.st0{fill:#FFFFFF;}
	.st1{fill:#C30407;}
</style>
<sodipodi:namedview  bordercolor="#666666" borderopacity="1.0" id="base" inkscape:current-layer="layer1" inkscape:cx="406.9644" inkscape:cy="281.80812" inkscape:document-units="px" inkscape:pageopacity="0.0" inkscape:pageshadow="2" inkscape:window-height="1057" inkscape:window-maximized="1" inkscape:window-width="1920" inkscape:window-x="-8" inkscape:window-y="-8" inkscape:zoom="1.4" pagecolor="#ffffff" showgrid="false" showguides="false">
	</sodipodi:namedview>
<g id="layer1" inkscape:groupmode="layer" inkscape:label="Layer 1">
	<g id="g8215" transform="translate(5.0638281,4.7154346)" inkscape:export-xdpi="261.18219" inkscape:export-ydpi="261.18219">
		<path id="rect4190" inkscape:export-xdpi="61.603806" inkscape:export-ydpi="61.603806" class="st0" d="M53.7,13.8l130.4,15.5
			c9.1,1.1,16.1,5.1,15.6,8.9l-10.6,80.1c-0.5,3.8-8.3,6.1-17.4,5L41.3,107.8c-9.1-1.1-16.1-5.1-15.6-8.9l10.6-80.1
			C36.8,15,44.6,12.8,53.7,13.8z"/>
		<g id="g8207">
			
				<g id="g6387" transform="matrix(0.8158903,0,0,0.8158903,31.384421,156.694)" inkscape:export-xdpi="61.603806" inkscape:export-ydpi="61.603806">
				
					<path id="path6145" inkscape:connector-curvature="0" inkscape:export-xdpi="359" inkscape:export-ydpi="359" sodipodi:nodetypes="ccccccccccccccccccccccczccsccccscccscccsccaaaaaaaaaacasaaaacccaassccccsccsc" class="st1" d="
					M30.3,7C10.8-15.1-5.6-36.6-10.2-63c0,0-6-5.2-9.1-8.3c-10.5-11-18.6-22.8-22.8-36.2c-3.5-11.4-3.6-23.6,0.4-34.6
					c11.2-25,33.6-39.3,57-47.4C38-197,66-199.2,87.2-197c30.5,2.5,61.2,11.1,86.4,24.8c7,3.9,14.1,7.8,20.7,12.4
					c23.2,20.5,40.1,41.2,37.9,71.3c-0.5,6.6-2.7,13.1-5.8,19c-11,19.7-29.5,31.7-48.9,39.1c-39.9,12.7-84.3,11-121.2,1.5
					c-8.7-2.6-15.4-4.8-23.3-8.6C27.9-22.6,28.1-8.8,30.3,7L30.3,7z M161.7-67l-6.1-15.6l-8.3-23.3l19.3-26.5
					c-8.1-2.9-14.4-3.9-22.1-4.3l-18.6,24.8l5.8-46.2c0,0-4.4-2.6-12-3.2c-7.5-0.6-11,0.1-11,0.1c-3,28.4-10.4,85.9-10.4,85.9
					s5.9,1.9,11.2,2.6c5.4,0.8,11.6,1.2,11.6,1.2l4.1-31.4l6.6,19.4l5,15.6c0,0,5.8,0.8,12.1,1C154.8-66.6,161.7-67,161.7-67z
					 M193.5-67.2c0,0-0.2-43.5-0.3-66.2c0,0-4.7-0.9-10.7-0.9c-6.9,0-11.6,0.8-11.6,0.8l-0.4,52l-0.2,14.7c0,0,4.6,1.1,12.5,1
					C188.7-65.9,193.5-67.2,193.5-67.2L193.5-67.2z M68.5-155.1c0,0,1.9,3.7,3.3,5.2c0.8,0.8,1.8,1.3,2.8,1.8
					c1.8,0.8,3.8,1.4,5.7,1.6c1.5,0.2,2.9,0.1,4.4-0.1c1.8-0.3,3.7-0.6,5.4-1.5c1.9-1,3.7-2.4,5.1-4.1c1.2-1.4,2.1-3.1,2.7-4.9
					c0.7-2.3,0.7-4.8,0.5-7.2c-0.1-1.5-0.6-2.9-1.2-4.3c-0.7-1.6-1.6-3.1-2.7-4.3c-1.5-1.6-3.1-2.9-5.2-3.9c-2-0.8-4.1-1-6.2-1
					c-2.5,0.1-5,0.8-7.3,1.7c-2.4,1-4.3,3.1-6,5.2c-0.8,1-1.4,2.3-1.9,3.6c-0.4,0.9-0.7,1.9-1,2.9c-0.2,1.1-0.6,2.3-0.4,3.4
					c0.4,1.8,2.7,4.9,2.7,4.9c-7-2.5-14.7-3.8-22.4-3.5l-2.1,16.6c0,0-23.9-1.8-31.9,5.3C1.3-127.6-3.3-108.5,0-93.6
					C1.8-85.6,8.8-79.2,16-75.1c6.6,3.7,12.6,4.7,20.8,6c7,1,19.9,2,19.9,2L68.5-155.1z M93.5-68.4l0.2-69.6c0,0-5.4-1.2-10.9-1.3
					c-6.5-0.2-11.3,1.1-11.3,1.1L71.9-68c0,0,3.3,0.6,10.9,0.4C89-67.7,93.5-68.4,93.5-68.4z"/>
				<circle id="path6176" class="st1" cx="83.1" cy="-163.1" r="17.5"/>
			</g>
			
				<path id="path6147" inkscape:connector-curvature="0" inkscape:export-xdpi="61.603806" inkscape:export-ydpi="61.603806" sodipodi:nodetypes="sscccs" class="st1" d="
				M56,83.3c-5.9-2.1-8.2-6.5-7.4-14.1c0.5-4.9,2.3-10,6.8-12.1c3.4-1.4,10.4,0.2,10.4,0.2S63.2,75.1,62,84.1
				C62,84.1,58.4,84.1,56,83.3z"/>
			
				<circle id="path6208" inkscape:export-xdpi="61.603806" inkscape:export-ydpi="61.603806" class="st0" cx="98.2" cy="24.9" r="13.2">
			</circle>
			
				<circle id="path6208-0" inkscape:export-xdpi="61.603806" inkscape:export-ydpi="61.603806" class="st0" cx="178.4" cy="29.5" r="13.4">
			</circle>
		</g>
	</g>
</g>
</svg>
